<?xml version="1.0" encoding="utf-8"?>
<!-- Generator: Adobe Illustrator 23.0.5, SVG Export Plug-In . SVG Version: 6.00 Build 0)  -->
<svg version="1.1" id="Layer_1" xmlns="http://www.w3.org/2000/svg" xmlns:xlink="http://www.w3.org/1999/xlink" x="0px" y="0px"
	 viewBox="0 0 841.9 595.3" style="enable-background:new 0 0 841.9 595.3;" xml:space="preserve">
<g>
	<g>
		<path style="fill:#4169B2;" d="M319.3,230.4c0-6.6-4.2-11.9-9.4-11.9H203.6c-5.2,0-9.4,5.3-9.4,11.9v134.4
			c0,6.6,4.2,11.9,9.4,11.9h106.4c5.2,0,9.4-5.3,9.4-11.9v-54.3l-13.9-12.9l13.9-12.9V230.4z M302.4,269.2c0,2.9-1.8,5.2-4.1,5.2
			h-51.9c-1.8,0-3.3,1.8-3.3,4.1v38.2c0,2.3,1.5,4.1,3.3,4.1h51.9c2.3,0,4.1,2.3,4.1,5.2v20.6c0,4.8-3.1,8.7-6.8,8.7H218
			c-3.8,0-6.8-3.9-6.8-8.7v-98c0-4.8,3.1-8.7,6.8-8.7h77.6c3.8,0,6.8,3.9,6.8,8.7V269.2z"/>
	</g>
	<g>
		<path style="fill:#010101;" d="M368.2,267.7c5.7,0,10,0.8,12.9,2.4c2.9,1.6,4.4,4.5,4.4,8.5c0,2.6-0.7,4.8-2.2,6.5
			c-1.5,1.7-3.6,2.8-6.4,3.3v0.3c1.9,0.3,3.6,0.8,5.2,1.6c1.5,0.8,2.8,1.9,3.7,3.3s1.3,3.3,1.3,5.6c0,4-1.4,7.1-4.2,9.3
			c-2.8,2.2-6.7,3.3-11.5,3.3h-15.9v-44.3H368.2z M369.3,286.6c3.9,0,6.6-0.6,8-1.8c1.4-1.2,2.2-3,2.2-5.4c0-2.4-0.9-4.2-2.6-5.2
			c-1.8-1.1-4.6-1.6-8.4-1.6H361v14.1H369.3z M361,291.2v16.1h9.1c4,0,6.8-0.8,8.4-2.3c1.6-1.5,2.3-3.5,2.3-6c0-2.3-0.8-4.2-2.4-5.6
			c-1.6-1.4-4.5-2.1-8.7-2.1H361z"/>
		<path style="fill:#010101;" d="M408.7,278.2c4.1,0,7.2,0.9,9.2,2.7c2,1.8,3,4.6,3,8.5V312h-4.1l-1.1-4.7h-0.3
			c-1.5,1.8-3,3.2-4.7,4c-1.6,0.9-3.9,1.3-6.8,1.3c-3.1,0-5.7-0.8-7.7-2.4s-3-4.1-3-7.5c0-3.3,1.3-5.9,4-7.7
			c2.7-1.8,6.8-2.8,12.3-2.9l5.8-0.2v-2c0-2.8-0.6-4.7-1.8-5.8c-1.2-1.1-3-1.6-5.2-1.6c-1.8,0-3.5,0.3-5.1,0.8
			c-1.6,0.5-3.1,1.1-4.5,1.8l-1.7-4.1c1.5-0.8,3.2-1.5,5.3-2C404.3,278.5,406.5,278.2,408.7,278.2z M410.3,295.9
			c-4.2,0.2-7.2,0.8-8.8,2c-1.6,1.2-2.4,2.8-2.4,4.9c0,1.9,0.6,3.2,1.7,4.1c1.2,0.9,2.7,1.3,4.5,1.3c2.9,0,5.3-0.8,7.2-2.3
			c1.9-1.5,2.9-3.9,2.9-7.2v-3L410.3,295.9z"/>
		<path style="fill:#010101;" d="M447.8,278.1c4.1,0,7.1,1,9.2,2.9c2.1,1.9,3.1,5,3.1,9.3V312h-5.5v-21.3c0-5.3-2.5-8-7.6-8
			c-3.8,0-6.4,1-7.8,3.1c-1.4,2.1-2.2,5-2.2,8.9V312h-5.6v-33.2h4.5l0.8,4.5h0.3c1.1-1.7,2.6-3,4.6-3.9
			C443.6,278.6,445.6,278.1,447.8,278.1z"/>
		<path style="fill:#010101;" d="M482,308.1c0.8,0,1.7-0.1,2.6-0.2c0.9-0.1,1.6-0.3,2.2-0.5v4.2c-0.6,0.3-1.4,0.5-2.5,0.7
			c-1.1,0.2-2.2,0.3-3.2,0.3c-1.8,0-3.4-0.3-4.9-0.9c-1.5-0.6-2.7-1.6-3.7-3.1c-0.9-1.5-1.4-3.6-1.4-6.3V283h-4.8v-2.6l4.9-2.2
			l2.2-7.1h3.3v7.6h9.8v4.2h-9.8v19.2c0,2,0.5,3.5,1.5,4.5C479.2,307.7,480.4,308.1,482,308.1z"/>
		<path style="fill:#010101;" d="M522,278.8V312h-4.6l-0.8-4.4h-0.3c-1.1,1.7-2.6,3-4.6,3.8c-1.9,0.8-4,1.2-6.2,1.2
			c-4.1,0-7.2-1-9.3-2.9c-2.1-1.9-3.1-5-3.1-9.2v-21.8h5.7v21.4c0,5.3,2.5,7.9,7.6,7.9c3.8,0,6.4-1,7.8-3.1c1.5-2.1,2.2-5,2.2-8.9
			v-17.3H522z"/>
		<path style="fill:#010101;" d="M546.5,312.6c-3,0-5.7-0.6-8-1.8s-4.2-3.1-5.5-5.6c-1.3-2.5-2-5.7-2-9.7c0-4.1,0.7-7.4,2.1-10
			c1.4-2.6,3.3-4.4,5.7-5.6c2.4-1.2,5.1-1.8,8.2-1.8c1.7,0,3.4,0.2,5,0.5c1.6,0.4,2.9,0.8,3.9,1.3l-1.7,4.5c-1-0.4-2.2-0.7-3.6-1.1
			c-1.4-0.3-2.6-0.5-3.8-0.5c-6.7,0-10,4.2-10,12.6c0,4,0.8,7.1,2.4,9.2c1.6,2.1,4.1,3.2,7.3,3.2c1.9,0,3.5-0.2,4.9-0.6
			c1.4-0.4,2.7-0.8,3.9-1.4v4.8c-1.1,0.6-2.4,1-3.8,1.3C550.1,312.5,548.4,312.6,546.5,312.6z"/>
		<path style="fill:#010101;" d="M600.6,278.1c3.9,0,6.7,1,8.6,2.9s2.9,5,2.9,9.3V312h-5.5v-21.4c0-5.2-2.3-7.9-6.9-7.9
			c-3.3,0-5.7,0.9-7.1,2.8c-1.4,1.9-2.1,4.6-2.1,8.1V312H585v-21.4c0-5.2-2.3-7.9-7-7.9c-3.4,0-5.8,1-7.1,3.1c-1.3,2.1-2,5-2,8.9
			V312h-5.6v-33.2h4.5l0.8,4.5h0.3c1.1-1.7,2.5-3,4.3-3.9c1.8-0.8,3.7-1.3,5.7-1.3c5.3,0,8.8,1.9,10.4,5.6h0.3
			c1.1-1.9,2.7-3.3,4.7-4.2C596.4,278.6,598.4,278.1,600.6,278.1z"/>
		<path style="fill:#010101;" d="M644.8,302.8c0,3.2-1.2,5.7-3.7,7.3c-2.5,1.7-5.8,2.5-9.9,2.5c-2.4,0-4.4-0.2-6.1-0.6
			c-1.7-0.4-3.2-0.9-4.5-1.5v-5c1.4,0.7,3,1.3,4.9,1.8c1.9,0.6,3.9,0.8,5.9,0.8c2.8,0,4.9-0.4,6.2-1.3c1.3-0.9,1.9-2.1,1.9-3.6
			c0-0.8-0.2-1.6-0.7-2.2c-0.5-0.7-1.3-1.3-2.5-2c-1.2-0.7-2.9-1.4-5.2-2.2c-2.2-0.8-4.1-1.7-5.7-2.5c-1.6-0.8-2.8-1.8-3.6-3
			c-0.8-1.2-1.3-2.6-1.3-4.5c0-2.8,1.2-5,3.5-6.5s5.4-2.3,9.2-2.3c2.1,0,4,0.2,5.8,0.6c1.8,0.4,3.5,0.9,5,1.6l-1.9,4.3
			c-1.4-0.6-2.9-1.1-4.5-1.5c-1.6-0.4-3.2-0.6-4.8-0.6c-2.3,0-4,0.4-5.2,1.1c-1.2,0.7-1.8,1.7-1.8,2.9c0,0.9,0.3,1.7,0.8,2.3
			c0.5,0.6,1.5,1.3,2.8,1.9c1.3,0.6,3,1.3,5.2,2.1c2.2,0.8,4,1.6,5.5,2.4c1.5,0.8,2.7,1.8,3.5,3C644.4,299.6,644.8,301,644.8,302.8z
			"/>
	</g>
</g>
<g>
</g>
<g>
</g>
<g>
</g>
<g>
</g>
<g>
</g>
<g>
</g>
</svg>
